<svg xmlns="http://www.w3.org/2000/svg" width="67" height="25" viewBox="0 0 67 25">
    <g fill="#FFF" fill-rule="evenodd">
        <path d="M13.883 6.762a.519.519 0 1 0-1.038.001.519.519 0 0 0 1.038 0zm-5.73 0a.519.519 0 1 0-1.037.001.519.519 0 0 0 1.038 0zm8.553 2.79H4.294c.002-2.14 1.277-4.006 3.163-4.987l-.982-1.771a.198.198 0 0 1 .346-.192l.993 1.79A6.613 6.613 0 0 1 10.5 3.83c.962 0 1.873.202 2.686.562l.993-1.79a.198.198 0 0 1 .346.192l-.982 1.77c1.886.982 3.16 2.847 3.163 4.988zM4.293 19.039a1.5 1.5 0 0 0 1.5 1.5h.997v3.07c0 .767.624 1.391 1.391 1.391s1.391-.624 1.391-1.391v-3.07h1.856v3.07c0 .767.624 1.391 1.39 1.391.768 0 1.392-.624 1.392-1.391v-3.07h.996a1.5 1.5 0 0 0 1.5-1.5v-8.996H4.294v8.996zm-1.91-9.235c-.766 0-1.39.624-1.39 1.392v5.797c0 .767.624 1.391 1.39 1.391.768 0 1.392-.624 1.392-1.391v-5.797c0-.768-.624-1.392-1.391-1.392zm17.625 1.392v5.797a1.393 1.393 0 0 1-2.783 0v-5.797c0-.768.624-1.392 1.391-1.392s1.392.624 1.392 1.392z"/>
        <path fill-rule="nonzero" d="M63.12 13.282c.035 3.783 3.352 5.042 3.389 5.058-.028.089-.53 1.794-1.748 3.556-1.052 1.523-2.145 3.04-3.866 3.072-1.691.03-2.235-.993-4.168-.993-1.933 0-2.537.961-4.138 1.023-1.661.063-2.926-1.647-3.988-3.164-2.169-3.104-3.826-8.77-1.6-12.596 1.105-1.9 3.08-3.102 5.225-3.133 1.632-.03 3.172 1.086 4.169 1.086.996 0 2.867-1.343 4.834-1.146.824.034 3.135.33 4.62 2.48-.12.073-2.758 1.594-2.73 4.757m-3.178-9.29c.882-1.057 1.476-2.528 1.314-3.992-1.272.05-2.809.839-3.72 1.895-.818.935-1.534 2.432-1.34 3.867 1.417.108 2.864-.713 3.746-1.77"/>
    </g>
</svg>
