<svg xmlns="http://www.w3.org/2000/svg" width="150" height="27" viewBox="0 0 150 27">
    <g fill="#FFE922" fill-rule="evenodd">
        <path d="M9.79 9.217L13.498 0l3.594 9.217 9.908.861L19.502 16l2.345 10.39-8.349-5.652-8.338 5.656L7.763 16 0 10.084zM40.455 9.217L44.163 0l3.594 9.217 9.908.861L50.167 16l2.345 10.39-8.349-5.652-8.338 5.656L38.428 16l-7.763-5.916zM71.12 9.217L74.828 0l3.594 9.217 9.908.861L80.832 16l2.345 10.39-8.349-5.652-8.338 5.656L69.093 16l-7.763-5.916zM101.785 9.217L105.493 0l3.594 9.217 9.908.861L111.497 16l2.345 10.39-8.349-5.652-8.338 5.656L99.758 16l-7.763-5.916zM132.45 9.217L136.158 0l3.594 9.217 9.908.861L142.163 16l2.344 10.39-8.349-5.652-8.338 5.656L130.423 16l-7.763-5.916z"/>
    </g>
</svg>
