<?xml version="1.0" encoding="UTF-8"?>
<svg width="14px" height="18px" viewBox="0 0 14 18" version="1.1" xmlns="http://www.w3.org/2000/svg" xmlns:xlink="http://www.w3.org/1999/xlink">
    <!-- Generator: sketchtool 57 (101010) - https://sketch.com -->
    <title>178C0A3B-788D-465E-9440-74CEFC5D556D</title>
    <desc>Created with sketchtool.</desc>
    <defs>
        <path d="M99.5609756,19.275247 L101.585366,19.275247 L101.585366,11.1776861 L106.121951,11.1776861 C107.211388,11.1776861 108.138208,11.3280911 108.902439,11.6289056 C109.66667,11.9297201 110.288615,12.3280901 110.768293,12.8240275 C111.24797,13.319965 111.59756,13.897195 111.817073,14.5557348 C112.036586,15.2142747 112.146341,15.8931297 112.146341,16.5923202 C112.146341,17.3077709 112.036586,17.9825609 111.817073,18.6167105 C111.59756,19.25086 111.24797,19.81183 110.768293,20.2996373 C110.288615,20.7874446 109.66667,21.1736196 108.902439,21.4581739 C108.138208,21.7427281 107.211388,21.8850031 106.121951,21.8850031 L104.756098,21.8850031 L104.756098,23.7386617 L109.04878,23.7386617 L109.04878,26.2508568 L104.756098,26.2508568 L104.756098,28.2508568 L101.585366,28.2508568 L101.585366,26.2508568 L99.5609756,26.2508568 L99.5609756,23.7386617 L101.585366,23.7386617 L101.585366,21.8850031 L99.5609756,21.8850031 L99.5609756,19.275247 Z M105.804878,19.275247 C106.243905,19.275247 106.65447,19.238662 107.036585,19.1654909 C107.418701,19.0923198 107.756098,18.9581748 108.04878,18.7630519 C108.341465,18.567929 108.569105,18.295574 108.731707,17.9459787 C108.89431,17.5963835 108.97561,17.1451685 108.97561,16.5923202 C108.97561,16.0394719 108.89431,15.5760619 108.731707,15.2020763 C108.569105,14.8280907 108.341465,14.5313457 108.04878,14.3118324 C107.756098,14.0923191 107.418701,13.9378491 107.036585,13.8484178 C106.65447,13.7589864 106.243905,13.7142714 105.804878,13.7142714 L104.756098,13.7142714 L104.756098,19.275247 L105.804878,19.275247 Z" id="path-1"></path>
    </defs>
    <g id="Готовые-решения" stroke="none" stroke-width="1" fill="none" fill-rule="evenodd">
        <g id="Готовые-решения---Один" transform="translate(-538.000000, -13556.000000)" fill-rule="nonzero">
            <g id="Group-2" transform="translate(439.000000, 13545.000000)">
                <g id="₽">
                    <use fill="#232323" xlink:href="#path-1"></use>
                    <use fill="#444444" xlink:href="#path-1"></use>
                </g>
            </g>
        </g>
    </g>
</svg>