<?xml version="1.0" encoding="UTF-8"?>
<svg width="24px" height="10px" viewBox="0 0 24 10" version="1.1" xmlns="http://www.w3.org/2000/svg" xmlns:xlink="http://www.w3.org/1999/xlink">
    <!-- Generator: sketchtool 57 (101010) - https://sketch.com -->
    <title>FAB5E340-972B-4AF7-8198-8AB972B0886B</title>
    <desc>Created with sketchtool.</desc>
    <g id="Symbols" stroke="none" stroke-width="1" fill="none" fill-rule="evenodd">
        <g id="блоки/хедер_на_черном" transform="translate(0.000000, -6.000000)" fill="#FF5790" fill-rule="nonzero">
            <g id="data/icons/key_pink" transform="translate(0.000000, 6.000000)">
                <path d="M1.02684385,7.91232406 C-0.744865494,5.65852682 -0.157029833,2.30894581 2.27496933,0.784318261 C5.03096164,-0.944585025 8.60855681,0.304067348 9.66529394,3.36008653 C9.81703757,3.79975286 9.92366822,3.87551075 10.3884685,3.87551075 C14.3939534,3.87551075 18.3980712,3.87686357 22.403556,3.87686357 C22.4910478,3.87686357 22.5812738,3.87415793 22.6701327,3.87821639 C23.2333612,3.90527278 23.6530486,4.35576167 23.6449644,4.92394584 C23.6366438,5.50836386 23.20602,5.95073582 22.6345891,5.95885274 C22.450036,5.9629112 22.265483,5.95885274 22.0809299,5.96020556 C21.7596709,5.96155838 21.6776473,6.04272755 21.6762803,6.3660514 C21.6735461,6.75295777 21.6831156,7.14121696 21.6721791,7.52812333 C21.6612426,7.93396917 21.464386,8.24241201 21.0993811,8.42774828 C20.7357432,8.61173172 20.3680042,8.59143943 20.0262392,8.3668714 C19.676272,8.13418645 19.5491354,7.79192312 19.5573378,7.38337164 C19.5669072,7.00322937 19.562806,6.6230871 19.5546036,6.24159201 C19.5505025,6.08872341 19.4725801,5.96832248 19.2989635,5.9696753 C19.1376504,5.9696753 19.0706645,6.08466495 19.0501586,6.22941663 C19.0419563,6.29435197 19.0433233,6.36064012 19.0419563,6.42692828 C19.0405892,7.19397692 19.0433233,7.96237838 19.0405892,8.73077984 C19.0392221,9.38689728 18.5853583,9.8603841 17.9729156,9.85497282 C17.364574,9.84820872 16.9325832,9.38283882 16.9312161,8.72942702 C16.9298491,7.94073327 16.9325832,7.1506867 16.9312161,6.3592873 C16.9312161,6.09413469 16.8300537,5.97779221 16.6126912,5.98185067 C16.3939617,5.98455631 16.3133052,6.07790085 16.309204,6.34711193 C16.3023687,6.75701623 16.2969004,7.16556771 16.2982675,7.57547201 C16.2996346,7.83115489 16.217611,8.047606 16.0193873,8.21670844 C15.6926601,8.49403643 15.3221869,8.57114714 14.9243725,8.4155729 C14.5197229,8.2559402 14.2968921,7.93802763 14.2654498,7.50647822 C14.2367415,7.10469083 14.2285391,6.70425627 14.2066662,6.30111607 C14.1929956,6.03866909 14.1287438,5.98320349 13.8703695,5.98185067 C12.6810276,5.98455631 11.4903186,5.98590913 10.3009767,5.98861477 C9.89906115,5.98861477 9.76372224,6.08466495 9.63795275,6.4634544 C9.39188201,7.19668256 9.00500412,7.84738872 8.45954731,8.39798625 C6.53336022,10.3446935 3.42466652,10.3528104 1.46840412,8.43315955 C1.31939462,8.25864584 1.16628393,8.09089623 1.02684385,7.91232406 Z M6.97906015,6.92209827 C8.10547885,5.79380876 8.10137767,4.01485116 6.96947714,2.90551458 C5.84572921,1.80434414 4.03437514,1.8084026 2.92294171,2.91634799 C1.81016904,4.02296808 1.81700434,5.81545388 2.93799172,6.92206174 C4.06034772,8.03272653 5.86896922,8.03407781 6.97906015,6.92209827 Z" id="Shape"></path>
            </g>
        </g>
    </g>
</svg>