<?xml version="1.0" encoding="UTF-8"?>
<svg width="30px" height="30px" viewBox="0 0 30 30" version="1.1" xmlns="http://www.w3.org/2000/svg" xmlns:xlink="http://www.w3.org/1999/xlink">
    <!-- Generator: sketchtool 57 (101010) - https://sketch.com -->
    <title>AD49B194-2E9B-4114-B2F5-C6C27D06126A</title>
    <desc>Created with sketchtool.</desc>
    <g id="Symbols" stroke="none" stroke-width="1" fill="none" fill-rule="evenodd">
        <g id="data/images/logos/ic_android" fill="#FFFFFF">
            <path d="M19.0594517,8.11475155 C19.0594517,7.77182264 18.7804434,7.49273252 18.4374327,7.49273252 C18.0945037,7.49273252 17.8154955,7.77182264 17.8154955,8.11475155 C17.8154955,8.45768046 18.0945037,8.73677058 18.4374327,8.73677058 C18.7804434,8.73677058 19.0594517,8.45768046 19.0594517,8.11475155 L19.0594517,8.11475155 Z M12.1845045,8.11475155 C12.1845045,7.77182264 11.9054963,7.49273252 11.5624855,7.49273252 C11.2195566,7.49273252 10.9404665,7.77182264 10.9404665,8.11475155 C10.9404665,8.45768046 11.2195566,8.73677058 11.5624855,8.73677058 C11.9054963,8.73677058 12.1845045,8.45768046 12.1845045,8.11475155 L12.1845045,8.11475155 Z M22.4477367,11.4621961 L7.55226335,11.4621961 C7.55545529,8.89358485 9.08496734,6.65521664 11.3484618,5.47755456 L10.1704724,3.35237744 C10.1070428,3.23795868 10.148538,3.09317557 10.2629568,3.029746 C10.3775393,2.96623458 10.5221587,3.00781164 10.5856701,3.1222304 L11.7766728,5.27089692 C12.7520969,4.83802079 13.8452953,4.59543337 14.9999591,4.59543337 C16.1546228,4.59543337 17.2479031,4.83802079 18.2232453,5.27089692 L19.4143299,3.1222304 C19.4576257,3.04415065 19.5387337,3 19.6222971,3 C19.6612551,3 19.7006224,3.00961222 19.7369614,3.029746 C19.851462,3.09317557 19.8929572,3.23795868 19.8295276,3.35237744 L18.6515382,5.47755456 C20.9149508,6.65521664 22.4444629,8.89358485 22.4477367,11.4621961 L22.4477367,11.4621961 Z M7.55209966,22.8467812 C7.55209966,23.8411932 8.35826906,24.6473626 9.35268106,24.6473626 L10.5476123,24.6473626 L10.5476123,28.33037 C10.5476123,29.25104 11.2966542,30 12.2172424,30 C13.1379124,30 13.8868724,29.25104 13.8868724,28.33037 L13.8868724,24.6473626 L16.1130458,24.6473626 L16.1130458,28.33037 C16.1130458,29.25104 16.8620058,30 17.7826758,30 C18.7033458,30 19.4523877,29.25104 19.4523877,28.33037 L19.4523877,24.6473626 L20.6472371,24.6473626 C21.6417309,24.6473626 22.4478185,23.8411932 22.4478185,22.8467812 L22.4478185,12.0514772 L7.55209966,12.0514772 L7.55209966,22.8467812 Z M5.26045061,11.7650211 C4.33986244,11.7650211 3.59082058,12.5139811 3.59082058,13.4346511 L3.59082058,20.3914429 C3.59082058,21.3121129 4.33986244,22.0610729 5.26045061,22.0610729 C6.18112061,22.0610729 6.93008063,21.3121129 6.93008063,20.3914429 L6.93008063,13.4346511 C6.93008063,12.5139811 6.18112061,11.7650211 5.26045061,11.7650211 L5.26045061,11.7650211 Z M26.4091794,13.4346511 L26.4091794,20.3914429 C26.4091794,21.3121129 25.6601376,22.0610729 24.7394675,22.0610729 C23.8187975,22.0610729 23.0698375,21.3121129 23.0698375,20.3914429 L23.0698375,13.4346511 C23.0698375,12.5139811 23.8187975,11.7650211 24.7394675,11.7650211 C25.6601376,11.7650211 26.4091794,12.5139811 26.4091794,13.4346511 L26.4091794,13.4346511 Z" id="Fill-1"></path>
        </g>
    </g>
</svg>