<?xml version="1.0" encoding="UTF-8"?>
<svg width="30px" height="30px" viewBox="0 0 30 30" version="1.1" xmlns="http://www.w3.org/2000/svg" xmlns:xlink="http://www.w3.org/1999/xlink">
    <!-- Generator: sketchtool 57 (101010) - https://sketch.com -->
    <title>14642847-9DC6-4C7F-B28E-0EA06D227F83</title>
    <desc>Created with sketchtool.</desc>
    <g id="Symbols" stroke="none" stroke-width="1" fill="none" fill-rule="evenodd">
        <g id="data/images/logos/ic_apple" fill="#FFFFFF" fill-rule="nonzero">
            <path d="M23.2711185,15.9380571 C23.3137069,20.4780068 27.2946067,21.9887877 27.3387097,22.0080709 C27.3050493,22.1146195 26.7026283,24.1610815 25.2413826,26.2749307 C23.9781999,28.1024604 22.6671829,29.9232955 20.6019438,29.9610065 C18.5726397,29.9980196 17.9201053,28.7698129 15.6000363,28.7698129 C13.2806681,28.7698129 12.5556726,29.9232924 10.6347103,29.9980196 C8.64123061,30.0726921 7.12321674,28.0217883 5.84953655,26.2009533 C3.24692531,22.4763737 1.25799182,15.6761665 3.92862676,11.0859158 C5.25534123,8.80637858 7.62628026,7.36288047 10.1997226,7.32586465 C12.1572687,7.28890246 14.0049596,8.62949699 15.2016323,8.62949699 C16.3975464,8.62949699 18.642884,7.01731459 21.0033247,7.25408395 C21.9914858,7.29479558 24.7652702,7.64920206 26.5463934,10.2298971 C26.4028788,10.3179642 23.2367008,12.1424929 23.2711185,15.9380614 M19.4572762,4.78994961 C20.5156279,3.5218329 21.2279597,1.75649717 21.0336279,5.32907052e-15 C19.5080933,0.0606917774 17.6633793,1.00627713 16.5691474,2.27369615 C15.5885054,3.39605473 14.7296835,5.19246121 14.9614085,6.9141935 C16.6617958,7.04441766 18.3988723,6.05887275 19.4572762,4.78995167" id="Shape"></path>
        </g>
    </g>
</svg>