<?xml version="1.0" encoding="UTF-8"?>
<svg width="29px" height="12px" viewBox="0 0 29 12" version="1.1" xmlns="http://www.w3.org/2000/svg" xmlns:xlink="http://www.w3.org/1999/xlink">
    <!-- Generator: sketchtool 57 (101010) - https://sketch.com -->
    <title>E8A652E8-5CCA-4A9E-AA9A-A8328B82DA48</title>
    <desc>Created with sketchtool.</desc>
    <g id="Page-1" stroke="none" stroke-width="1" fill="none" fill-rule="evenodd">
        <g id="Главная" transform="translate(-560.000000, -1045.000000)" fill="#D757AE" fill-rule="nonzero">
            <g id="data/icons/key_purple" transform="translate(560.000000, 1045.000000)">
                <path d="M1.24076965,9.49478887 C-0.900045806,6.79023218 -0.189744382,2.77073497 2.74892128,0.941181913 C6.07907865,-1.13350203 10.4020062,0.364880818 11.6788968,4.03210384 C11.8622537,4.55970344 11.9910991,4.6506129 12.5527328,4.6506129 C17.3926937,4.6506129 22.2310027,4.65223629 27.0709635,4.65223629 C27.1766828,4.65223629 27.2857058,4.64898952 27.393077,4.65385967 C28.0736448,4.68632734 28.580767,5.226914 28.5709986,5.90873501 C28.5609446,6.61003663 28.0406076,7.14088299 27.3501285,7.15062329 C27.1271269,7.15549344 26.9041253,7.15062329 26.6811237,7.15224667 C26.2929357,7.15387006 26.1938239,7.25127306 26.192172,7.63926168 C26.1888683,8.10354932 26.2004313,8.56946035 26.1872164,9.03374799 C26.1740015,9.520763 25.9361331,9.89089441 25.4950855,10.1132979 C25.0556897,10.3340781 24.6113384,10.3097273 24.1983724,10.0402457 C23.7754953,9.76102374 23.621872,9.35030775 23.6317831,8.86004597 C23.6433462,8.40387525 23.6383906,7.94770452 23.6284794,7.48991041 C23.6235238,7.30646809 23.5293676,7.16198697 23.3195809,7.16361036 C23.124661,7.16361036 23.0437196,7.30159794 23.0189417,7.47529996 C23.0090305,7.55322236 23.0106824,7.63276815 23.0090305,7.71231393 C23.0073786,8.6327723 23.0106824,9.55485405 23.0073786,10.4769358 C23.0057268,11.2642767 22.457308,11.8324609 21.717273,11.8259674 C20.9821936,11.8178505 20.4602047,11.2594066 20.4585528,10.4753124 C20.456901,9.52887992 20.4602047,8.58082403 20.4585528,7.63114476 C20.4585528,7.31296163 20.3363149,7.17335066 20.0736686,7.17822081 C19.8093704,7.18146757 19.7119104,7.29348102 19.7069548,7.61653431 C19.6986955,8.10841947 19.692088,8.59868125 19.6937399,9.09056641 C19.6953918,9.39738587 19.5962799,9.65712721 19.3567597,9.86005013 C18.9619642,10.1928437 18.5143092,10.2853766 18.0336168,10.0986875 C17.5446651,9.90712824 17.2754113,9.52563315 17.2374185,9.00777386 C17.2027293,8.525629 17.1928181,8.04510752 17.1663883,7.56133928 C17.1498697,7.24640291 17.0722321,7.17984419 16.7600298,7.17822081 C15.3229083,7.18146757 13.884135,7.18309096 12.4470135,7.18633772 C11.9613656,7.18633772 11.797831,7.30159794 11.6458596,7.75614528 C11.3485241,8.63601907 10.8810466,9.41686647 10.221953,10.0775835 C7.89447694,12.4136322 4.13813871,12.4233725 1.77432165,10.1197915 C1.5942685,9.91037501 1.40925975,9.70907547 1.24076965,9.49478887 Z M8.43303101,8.30651792 C9.79412028,6.95257052 9.78916469,4.81782139 8.42145154,3.48661749 C7.06358946,2.16521297 4.87486996,2.17008312 3.5318879,3.49961759 C2.18728759,4.82756169 2.19554691,6.97854465 3.55007333,8.30647409 C4.90625349,9.63927183 7.09167114,9.64089337 8.43303101,8.30651792 Z" id="Shape"></path>
            </g>
        </g>
    </g>
</svg>