<?xml version="1.0" encoding="UTF-8"?>
<svg width="48px" height="48px" viewBox="0 0 48 48" version="1.1" xmlns="http://www.w3.org/2000/svg" xmlns:xlink="http://www.w3.org/1999/xlink">
    <!-- Generator: sketchtool 57 (101010) - https://sketch.com -->
    <title>6694ADC4-1FD5-402D-816F-457F0FB3F211</title>
    <desc>Created with sketchtool.</desc>
    <g id="Symbols" stroke="none" stroke-width="1" fill="none" fill-rule="evenodd">
        <g id="data/images/icons/buy" fill="#FFFFFF" fill-rule="nonzero">
            <path d="M21.0029026,32 C21.0029026,33.1045695 20.1071472,34 19.002177,34 C17.8972067,34 17.0014513,33.1045695 17.0014513,32 C17.0014513,30.8954305 17.8972067,30 19.002177,30 C20.1071472,30 21.0029026,30.8954305 21.0029026,32 Z M29.0058053,30 C27.900835,30 27.0050796,30.8954305 27.0050796,32 C27.0050796,33.1045695 27.900835,34 29.0058053,34 C30.1107755,34 31.0065309,33.1045695 31.0065309,32 C31.0065309,30.8954305 30.1107755,30 29.0058053,30 Z M20.1025761,25 L19.002177,27 L30.0061681,27 C30.5586532,27 31.0065309,27.4477153 31.0065309,28 C31.0065309,28.5522847 30.5586532,29.0000813 30.0061681,29.0000813 L19.002177,29.0000813 C18.284182,29.0064584 17.6177814,28.627812 17.2559899,28.007823 C16.8941984,27.387834 16.892501,26.6215847 17.251542,26 L18.6020318,23.59 L15.0007257,16 L14.0003628,16 C13.4478777,16 13,15.5522847 13,15 C13,14.4477153 13.4478777,14 14.0003628,14 L15.6409579,14 C16.0257569,14.0010889 16.3758217,14.2227162 16.5412844,14.57 L17.2115275,16 L32.0068938,16 C32.3588941,16.0025526 32.6836474,16.1898564 32.8620337,16.4932081 C33.0404201,16.7965599 33.0461833,17.1713101 32.8772094,17.48 L29.3059141,24 C28.9453301,24.6243901 28.2764762,25.0064537 27.5552792,25 L20.1025761,25 Z M20.8828591,23 L27.3652102,23 C27.5328982,23.000746 27.6871019,22.9082574 27.7653554,22.76 L30.3462915,18 L18.1018504,18 L20.4727103,22.78 C20.5609756,22.920584 20.7168734,23.0042061 20.8828591,23 Z" id="Shape"></path>
        </g>
    </g>
</svg>