<svg xmlns="http://www.w3.org/2000/svg" width="20" height="8" viewBox="0 0 20 8">
    <path fill="#FCD644" fill-rule="nonzero" d="M1.3 6.268C-.103 4.465.362 1.786 2.288.566a3.922 3.922 0 0 1 5.85 2.06c.12.352.205.413.573.413l9.512.001c.07 0 .14-.002.211.001a.807.807 0 0 1 .772.837c-.007.467-.348.821-.8.828-.146.003-.292 0-.438 0-.255.002-.32.067-.32.325-.003.31.005.62-.004.93a.79.79 0 0 1-.454.72.799.799 0 0 1-.85-.049c-.276-.186-.377-.46-.37-.787.007-.304.004-.608-.002-.913-.004-.123-.065-.219-.203-.218-.128 0-.18.092-.197.208-.006.052-.005.105-.006.158l-.001 1.843c-.001.525-.36.904-.846.9-.481-.006-.823-.378-.824-.901V5.026c0-.212-.08-.305-.252-.302-.174.002-.237.077-.24.292-.006.328-.01.655-.01.983a.635.635 0 0 1-.22.513c-.259.222-.552.283-.867.159-.32-.128-.497-.382-.522-.727-.022-.322-.029-.642-.046-.965-.011-.21-.062-.254-.266-.255l-2.826.005c-.318 0-.426.077-.525.38a3.962 3.962 0 0 1-.933 1.548 3.881 3.881 0 0 1-5.535.028c-.118-.14-.239-.274-.35-.417zm4.712-.792a2.26 2.26 0 0 0-.008-3.213 2.267 2.267 0 0 0-3.203.009c-.881.885-.876 2.319.012 3.204.888.889 2.32.89 3.199 0z"/>
</svg>
